# xmcd CD database file
#
# Track frame offsets:
#	150
#	22005
#	40594
#	63313
#	82998
#	98372
#	121931
#	142578
#	161463
#	181760
#	201827
#	221569
#	242657
#	264905
#	285876
#	306131
#
# Disc length: 4283 seconds
#
# Revision: 0
# Processed by: cddbd v1.5.1PL0 Copyright (c) Steve Scherf et al.
# Submitted via: CDex 1.51
#
DISCID=c010b910
DTITLE=Varios - Merenhits 98
DYEAR=98
DGENRE=Merengue
TTITLE0=El Grillero/Proyecto uno
TTITLE1=Como un trueno/Ilegales
TTITLE2=La quiero a morir/Dlg
TTITLE3=Te voy a hacer falta/Rikarena
TTITLE4=Guallando/Fulanito
TTITLE5=Amor narcotico/Chichi Peralta
TTITLE6=Era mentira/Rikarena
TTITLE7=Cuarto de hotel/ Proyecto uno
TTITLE8=Bueno pa' gozar/Sandy and Papo
TTITLE9=Que te has creido/Sergio Vargas
TTITLE10=Taqui Taqui/Ilegales
TTITLE11=Seme fue mi vida/Rikarena
TTITLE12=Juliana/Dlg
TTITLE13=La fiesta/Sandy&Papo
TTITLE14=Procura/Chichi Peralta
TTITLE15=Pata pata/El General
EXTD=YEAR: 98
EXTT0=
EXTT1=
EXTT2=
EXTT3=
EXTT4=
EXTT5=
EXTT6=
EXTT7=
EXTT8=
EXTT9=
EXTT10=
EXTT11=
EXTT12=
EXTT13=
EXTT14=
EXTT15=
PLAYORDER=
